<svg version="1.1" id="Layer_1" xmlns="http://www.w3.org/2000/svg" xmlns:xlink="http://www.w3.org/1999/xlink" x="0px" y="0px"
	 width="100%" viewBox="0 0 4570 1734" enable-background="new 0 0 4570 1734" xml:space="preserve">
<path fill="#FFFFFF" opacity="1.000000" stroke="none" 
	d="
M622.000000,2.000003 
	C1938.572876,2.000000 3255.145752,2.000000 4571.859375,2.000000 
	C4571.859375,579.865112 4571.859375,1157.730347 4571.859375,1736.000000 
	C3810.522461,1736.000000 3049.044678,1736.000000 2287.567139,1736.000000 
	C1525.954712,1736.000000 764.342224,1736.000000 2.000000,1736.000000 
	C2.000000,1439.263916 2.000000,1142.527222 2.457103,844.926880 
	C2.914206,844.063293 3.830590,844.058411 4.484914,844.562744 
	C7.813433,877.974915 14.202788,910.162781 24.324991,941.571167 
	C41.602459,995.181641 68.664436,1043.306885 106.602631,1085.007446 
	C141.839218,1123.738281 184.387665,1152.455078 231.889954,1174.036865 
	C306.624969,1207.991577 385.668274,1221.924561 467.143860,1223.453003 
	C488.992462,1223.862915 510.916351,1221.782593 532.766235,1220.273682 
	C572.333008,1217.541382 611.047668,1209.902832 649.060486,1198.713501 
	C713.984009,1179.602905 773.533691,1150.459961 824.582092,1105.178833 
	C867.856750,1066.793091 899.127014,1020.424744 917.846558,965.787842 
	C932.060974,924.299988 939.271057,881.637634 936.319824,837.600769 
	C935.476257,825.013489 935.422058,812.289368 933.447632,799.875854 
	C923.452209,737.033203 899.200989,680.568726 856.110596,633.095886 
	C830.245789,604.600464 800.114685,582.043518 762.929810,570.093384 
	C760.638489,569.356995 758.468628,568.242493 755.687683,567.070129 
	C762.368042,561.378906 768.337585,556.624573 773.916504,551.449280 
	C779.776184,546.013611 785.564209,540.442993 790.864136,534.470459 
	C846.454956,471.825378 873.980591,397.648499 879.395569,314.914337 
	C880.778381,293.786285 879.896851,272.328339 877.984192,251.209595 
	C875.231018,220.810059 865.703430,192.078018 851.492432,165.019165 
	C835.712219,134.972504 815.117920,108.686958 789.672546,86.164352 
	C744.193420,45.909035 692.428040,18.002310 632.688110,5.527686 
	C629.039001,4.765684 625.558777,3.194622 622.000000,2.000003 
M2654.096191,581.112000 
	C2624.593994,588.662598 2595.692383,597.925171 2567.429932,610.044312 
	C2582.374023,661.312500 2596.935303,711.267578 2611.607178,761.602173 
	C2614.333740,760.826782 2615.910645,760.499146 2617.399414,759.937439 
	C2667.467529,741.046570 2718.681641,728.159180 2772.697510,728.074829 
	C2793.761475,728.041931 2814.571045,728.975098 2834.812256,734.846924 
	C2865.617188,743.783386 2887.550293,762.502197 2896.789795,794.071594 
	C2900.680176,807.364136 2902.459229,820.985046 2901.311035,835.723206 
	C2897.657471,834.621399 2895.158936,833.860352 2892.656250,833.114136 
	C2846.529053,819.361694 2799.416504,812.005432 2751.266846,812.475525 
	C2735.049316,812.633850 2718.778076,814.031921 2702.657471,815.933594 
	C2670.085938,819.775940 2638.749756,828.236450 2609.510498,843.513855 
	C2565.684814,866.412781 2535.740234,901.098572 2522.928711,949.068359 
	C2511.430176,992.121216 2512.477051,1035.373291 2527.175781,1077.625488 
	C2538.279053,1109.542236 2557.976318,1135.697998 2585.350342,1155.622925 
	C2622.043945,1182.331055 2663.944092,1193.732178 2708.695312,1195.529175 
	C2722.266113,1196.073975 2735.927002,1195.066406 2749.518311,1194.281372 
	C2798.444336,1191.455444 2840.952881,1172.827393 2878.076172,1141.323730 
	C2885.253906,1135.232422 2892.026367,1128.663086 2900.535156,1120.900757 
	C2900.535156,1142.499878 2900.535156,1161.981201 2900.535156,1181.703613 
	C2971.916016,1181.703613 3042.364502,1181.703613 3113.389404,1181.703613 
	C3113.501465,1179.205811 3113.671387,1177.257446 3113.664307,1175.309570 
	C3113.227783,1054.386108 3112.718750,933.462891 3112.383301,812.539062 
	C3112.324951,791.514282 3109.861816,770.797546 3105.944824,750.216980 
	C3099.906250,718.491943 3089.087891,688.655762 3069.850830,662.379333 
	C3039.377686,620.754700 2997.847900,595.163025 2949.340332,579.748840 
	C2913.272217,568.287476 2876.002930,564.059998 2838.494873,562.546143 
	C2806.953857,561.273132 2775.391602,562.703369 2743.865234,565.457153 
	C2713.983643,568.067383 2684.671875,573.323853 2654.096191,581.112000 
M1869.514893,734.631592 
	C1852.996216,769.938538 1843.504639,807.235229 1840.585083,845.915161 
	C1837.902710,881.451294 1838.954346,917.039795 1846.253662,952.161682 
	C1860.016479,1018.383789 1890.518433,1075.205688 1942.272949,1119.417236 
	C1996.408691,1165.663330 2060.144287,1189.540771 2130.531494,1195.387451 
	C2160.319092,1197.861816 2190.360352,1197.575073 2220.219482,1193.834351 
	C2244.041260,1190.849731 2267.419922,1185.965088 2289.955078,1177.713013 
	C2338.370850,1159.983887 2379.471191,1131.194702 2414.666260,1093.784180 
	C2420.949219,1087.105835 2426.559814,1079.795288 2432.825928,1072.367676 
	C2392.473145,1038.950317 2352.943359,1006.214539 2313.834473,973.827148 
	C2303.572021,982.594360 2294.496826,990.917236 2284.839600,998.499573 
	C2242.209717,1031.970947 2194.053955,1042.820312 2141.228027,1031.791260 
	C2102.732910,1023.754272 2073.963379,1002.411987 2057.425049,966.104004 
	C2053.228760,956.891174 2048.513672,947.667664 2047.997314,936.118042 
	C2183.798340,936.118042 2318.967529,936.118042 2454.395996,936.118042 
	C2454.932373,933.347473 2455.614014,931.449341 2455.621094,929.548584 
	C2455.762939,892.321411 2456.603760,855.082764 2450.165039,818.145752 
	C2443.094971,777.587830 2431.498779,738.612366 2411.476562,702.421387 
	C2383.938721,652.644958 2344.815430,614.982788 2294.043701,589.192993 
	C2256.326904,570.034424 2215.986572,561.242554 2174.247314,558.475098 
	C2137.605469,556.045593 2101.200195,558.440430 2065.498779,568.001831 
	C2009.036987,583.123230 1961.119629,612.414307 1921.528198,655.235229 
	C1900.141357,678.366455 1883.321411,704.659119 1869.514893,734.631592 
M3953.703613,618.675659 
	C3904.233398,656.162048 3870.204834,704.810120 3849.857422,763.164795 
	C3836.373047,801.836914 3831.002686,841.751282 3831.498779,882.717163 
	C3831.887451,914.818909 3835.284668,946.364746 3844.251221,977.184387 
	C3861.241699,1035.583496 3891.919922,1085.277222 3939.412109,1123.836914 
	C3992.700439,1167.102661 4054.411133,1189.902954 4122.289062,1195.350952 
	C4156.382812,1198.087402 4190.719238,1197.732910 4224.770996,1192.022949 
	C4254.451660,1187.046021 4283.096680,1179.066284 4310.166992,1165.742554 
	C4338.722168,1151.688110 4364.666016,1133.771484 4388.072266,1112.303955 
	C4401.251465,1100.216187 4413.544434,1087.188354 4424.393066,1072.141357 
	C4384.548340,1039.135376 4345.010254,1006.383301 4303.991699,972.405090 
	C4301.705566,975.527222 4300.257812,978.317139 4298.090332,980.332764 
	C4283.195312,994.182068 4267.416504,1006.865112 4249.360840,1016.485413 
	C4215.214844,1034.679565 4178.829102,1039.611572 4141.057129,1033.453491 
	C4098.516602,1026.518188 4066.499756,1004.608337 4048.462891,964.458618 
	C4044.547607,955.743408 4040.865967,946.874207 4039.691650,936.170654 
	C4175.522949,936.170654 4310.674316,936.170654 4446.146973,936.170654 
	C4446.748047,932.388611 4447.624512,929.468872 4447.611328,926.553223 
	C4447.476562,896.647705 4448.340820,866.759277 4444.536621,836.911499 
	C4440.441406,804.783569 4433.764160,773.381897 4422.126465,743.165833 
	C4391.834473,664.516785 4338.786621,607.836182 4259.399414,577.687744 
	C4205.780762,557.325134 4149.949219,553.747070 4093.504883,560.841248 
	C4042.326660,567.273560 3996.140869,586.855408 3953.703613,618.675659 
M3255.000000,741.682068 
	C3329.461426,741.682068 3403.922607,741.682068 3480.228027,741.682068 
	C3478.045898,744.222839 3477.284912,745.185791 3476.445557,746.074341 
	C3459.535400,763.977783 3442.561279,781.820862 3425.711670,799.780762 
	C3401.585205,825.497314 3377.605469,851.351624 3353.453857,877.044678 
	C3335.218018,896.444824 3316.750488,915.627380 3298.494141,935.008667 
	C3267.696533,967.703613 3237.072510,1000.562866 3206.127686,1033.117676 
	C3202.170654,1037.280640 3200.175537,1041.192261 3200.205566,1047.018311 
	C3200.424561,1089.349243 3200.311768,1131.681885 3200.350586,1174.013916 
	C3200.353027,1176.572510 3200.754150,1179.130981 3200.958496,1181.556641 
	C3219.118652,1183.578003 3759.053955,1182.717041 3765.698730,1180.801514 
	C3765.698730,1124.877075 3765.698730,1069.024536 3765.698730,1012.014771 
	C3672.396729,1012.014771 3579.714355,1012.014771 3484.744141,1012.014771 
	C3491.516846,1005.145630 3496.697266,1000.092651 3501.654785,994.829773 
	C3527.890381,966.980896 3554.021484,939.033447 3580.285645,911.211548 
	C3599.478027,890.881165 3618.873779,870.743103 3638.082520,850.428040 
	C3665.742920,821.175110 3693.318848,791.842285 3720.924072,762.537354 
	C3734.157471,748.489319 3747.245850,734.301147 3760.676270,720.444397 
	C3764.929443,716.055725 3766.501221,711.498291 3766.462402,705.374390 
	C3766.200195,664.043884 3766.325928,622.710999 3766.325928,581.378845 
	C3766.325928,578.469482 3766.325684,575.560059 3766.325684,572.350281 
	C3580.598877,572.350281 3395.852051,572.350281 3211.184814,572.350281 
	C3209.089355,590.349426 3209.889404,734.429138 3212.177246,741.681946 
	C3225.691162,741.681946 3239.345703,741.681946 3255.000000,741.682068 
M1742.799438,1001.893005 
	C1721.851318,1009.019409 1700.331299,1012.606201 1678.278809,1010.172119 
	C1651.504883,1007.216797 1638.068359,994.457214 1633.813232,970.586487 
	C1632.480103,963.107483 1631.785645,955.414490 1631.767212,947.817017 
	C1631.610718,883.152771 1631.670288,818.487976 1631.701416,753.823303 
	C1631.702759,750.932312 1632.052368,748.041443 1632.293213,744.326233 
	C1644.483521,744.326233 1656.079346,744.326294 1667.675171,744.326294 
	C1679.341431,744.326294 1691.007812,744.326294 1702.674072,744.326294 
	C1714.673706,744.326294 1726.673462,744.353699 1738.672974,744.318298 
	C1750.172119,744.284363 1761.684937,744.482544 1772.978760,744.197815 
	C1772.978760,685.888000 1772.978760,629.068237 1772.978760,571.424011 
	C1725.739136,571.424011 1679.191650,571.424011 1631.550781,571.424011 
	C1631.550781,519.475037 1631.550781,468.343109 1631.550781,417.387085 
	C1617.531128,415.382538 1423.048096,415.953369 1416.207397,417.857758 
	C1416.123413,418.180328 1415.966309,418.502716 1415.965576,418.825439 
	C1415.853882,468.148163 1415.755615,517.470947 1415.637207,566.793640 
	C1415.634766,567.782288 1415.439331,568.777100 1415.256104,569.754456 
	C1415.203125,570.036682 1414.888428,570.277832 1414.673218,570.519470 
	C1414.451904,570.767944 1414.205078,570.993835 1413.128784,572.070435 
	C1390.781738,572.070435 1367.583862,572.070435 1344.195068,572.070435 
	C1344.195068,629.738953 1344.195068,686.565186 1344.195068,744.584106 
	C1368.132446,744.584106 1391.578003,744.584106 1415.673828,744.584106 
	C1415.673828,749.385498 1415.673828,753.008484 1415.673828,756.631470 
	C1415.673828,838.295593 1415.508179,919.960205 1415.761108,1001.623596 
	C1415.853149,1031.342773 1419.902832,1060.555298 1430.051514,1088.717896 
	C1437.724731,1110.011230 1449.025879,1128.881226 1465.687378,1144.445679 
	C1488.417480,1165.679321 1515.547485,1178.416870 1545.346802,1185.905151 
	C1583.518677,1195.497314 1622.199707,1195.994629 1661.207520,1192.525146 
	C1695.741455,1189.453735 1728.333130,1179.829712 1759.796143,1165.788696 
	C1763.949829,1163.935059 1767.862061,1161.540283 1771.016357,1159.859619 
	C1771.016357,1103.129028 1771.016357,1047.664185 1771.016357,991.220154 
	C1761.530518,994.877686 1752.938232,998.190613 1742.799438,1001.893005 
M1261.679810,637.000000 
	C1261.679810,615.461121 1261.679810,593.922241 1261.679810,572.343628 
	C1188.637695,572.343628 1116.872559,572.343628 1044.801758,572.343628 
	C1044.801758,775.743958 1044.801758,978.472168 1044.801758,1181.112427 
	C1056.756836,1183.296753 1254.412231,1182.741577 1261.679810,1180.442017 
	C1261.679810,1000.062866 1261.679810,819.531433 1261.679810,637.000000 
M1246.890137,517.692749 
	C1252.800171,517.692749 1258.710205,517.692749 1265.136230,517.692749 
	C1265.136230,464.228363 1265.136230,411.809448 1265.136230,358.848724 
	C1190.216064,358.848724 1115.810059,358.848724 1040.858032,358.848724 
	C1040.858032,411.783142 1040.858032,464.202057 1040.858032,517.692627 
	C1109.230347,517.692627 1177.077148,517.692627 1246.890137,517.692749 
M318.346191,1527.293213 
	C310.742340,1561.855713 303.138489,1596.418335 295.547546,1630.922119 
	C286.281250,1588.529419 277.082062,1546.443604 267.831360,1504.122192 
	C255.946152,1504.122192 245.070969,1504.122192 233.055313,1504.122192 
	C222.887726,1546.387817 212.727036,1588.624878 202.125244,1632.695557 
	C193.058838,1588.604736 184.357025,1546.287109 175.679062,1504.085327 
	C163.060471,1504.085327 151.829529,1504.085327 139.305374,1504.085327 
	C153.454773,1561.002197 167.427658,1617.208862 181.333221,1673.144897 
	C194.116180,1673.144897 205.658890,1673.144897 217.831375,1673.144897 
	C228.246216,1632.306641 238.567978,1591.833496 249.230408,1550.024414 
	C256.546692,1592.624878 266.986603,1632.966553 276.604034,1673.319824 
	C289.123047,1673.319824 300.365906,1673.319824 312.576874,1673.319824 
	C327.781342,1617.024536 342.955109,1560.843140 358.279846,1504.102539 
	C346.102509,1504.102539 335.219696,1504.102539 323.859741,1504.102539 
	C322.151245,1511.516846 320.515747,1518.614502 318.346191,1527.293213 
M2660.291504,1550.999756 
	C2660.857910,1574.996826 2661.424316,1598.993896 2661.997314,1623.279419 
	C2638.533447,1582.927246 2615.412354,1543.164795 2592.411133,1503.608643 
	C2579.100830,1503.812622 2566.948486,1503.346436 2554.842285,1503.871338 
	C2554.842285,1561.062256 2554.842285,1616.861938 2554.842285,1673.125610 
	C2565.174805,1673.125610 2574.952637,1673.125610 2585.032227,1673.125610 
	C2585.032227,1631.572632 2585.032227,1590.604126 2585.032227,1549.848389 
	C2608.968994,1591.196777 2632.986328,1632.684082 2656.368408,1673.073730 
	C2669.139648,1673.073730 2679.993896,1673.073730 2691.006592,1673.073730 
	C2691.006592,1616.363159 2691.006592,1560.295044 2691.006592,1503.588867 
	C2680.499268,1504.091553 2670.651367,1502.643311 2660.291748,1504.643188 
	C2660.291748,1519.787354 2660.291748,1534.393677 2660.291504,1550.999756 
M3038.173340,1557.140259 
	C3036.407471,1552.490967 3035.054199,1547.631226 3032.806885,1543.227661 
	C3020.727295,1519.560425 3000.002197,1508.648682 2974.852539,1504.141113 
	C2956.691650,1500.885986 2938.435059,1501.802490 2920.207764,1502.459839 
	C2912.137695,1502.750977 2904.120361,1504.500366 2896.384277,1505.546509 
	C2896.384277,1562.249878 2896.384277,1617.646606 2896.384277,1673.611816 
	C2902.010010,1673.892700 2906.987061,1673.798218 2911.865723,1674.443848 
	C2933.151611,1677.260742 2954.278564,1676.069214 2975.187500,1671.695801 
	C3002.067871,1666.073486 3023.312744,1652.584229 3033.971436,1626.140869 
	C3042.777588,1604.292969 3044.107910,1581.706177 3038.173340,1557.140259 
M1919.689453,1668.282104 
	C1919.689453,1645.730103 1919.689453,1623.178101 1919.689453,1600.415039 
	C1942.808838,1600.415039 1964.877563,1600.415039 1987.799561,1600.415039 
	C1987.799561,1624.960815 1987.799561,1648.808960 1987.799561,1673.013428 
	C1999.422607,1673.013428 2010.175049,1673.013428 2021.238770,1673.013428 
	C2021.238770,1616.501587 2021.238770,1560.677490 2021.238770,1504.255371 
	C2010.030640,1504.255371 1999.276733,1504.255371 1987.301025,1504.255371 
	C1987.301025,1526.849487 1987.301025,1548.944702 1987.301025,1571.078369 
	C1964.241089,1571.078369 1942.405884,1571.078369 1919.404419,1571.078369 
	C1919.404419,1548.408447 1919.404419,1526.289551 1919.404419,1504.167480 
	C1907.684692,1504.167480 1897.147583,1504.167480 1886.307617,1504.167480 
	C1886.307617,1560.744751 1886.307617,1616.809326 1886.307617,1673.650757 
	C1896.533203,1673.650757 1906.133423,1673.787109 1915.720581,1673.494385 
	C1917.059570,1673.453369 1918.334229,1671.303467 1919.689453,1668.282104 
M2213.748291,1668.442993 
	C2213.480225,1669.952759 2213.212402,1671.462524 2212.916016,1673.132690 
	C2224.724121,1673.132690 2235.916992,1673.132690 2247.050293,1673.132690 
	C2251.776123,1657.772583 2256.337891,1642.945068 2260.869141,1628.217407 
	C2278.852783,1628.217407 2296.061523,1628.217407 2313.313477,1628.217407 
	C2318.365234,1643.699097 2323.271729,1658.735107 2327.954102,1673.085083 
	C2340.392822,1673.085083 2351.500244,1673.085083 2363.694092,1673.085083 
	C2345.413330,1616.064697 2327.415771,1559.927612 2309.570557,1504.265625 
	C2294.420410,1504.265625 2280.559570,1504.265625 2266.677979,1504.265625 
	C2249.050781,1558.846436 2231.598389,1612.885864 2213.748291,1668.442993 
M3597.003418,1598.350220 
	C3606.907471,1598.350220 3616.811523,1598.350220 3626.982910,1598.350220 
	C3626.982910,1589.171265 3626.982910,1581.085327 3626.982910,1572.324951 
	C3605.830322,1572.223267 3585.363281,1572.381836 3565.010986,1572.227173 
	C3565.010986,1556.897827 3565.010986,1543.076050 3565.010986,1528.102783 
	C3587.434814,1528.102783 3609.219482,1528.102783 3631.093262,1528.102783 
	C3631.093262,1519.434082 3631.093262,1511.947754 3631.093262,1504.316772 
	C3597.357178,1504.316772 3564.231445,1504.316772 3531.186035,1504.316772 
	C3529.134766,1521.348267 3529.872314,1666.306885 3531.951172,1673.182373 
	C3566.179199,1673.182373 3600.394043,1673.182373 3635.134277,1673.182373 
	C3635.134277,1664.871948 3635.134277,1657.088257 3635.134277,1648.183350 
	C3611.458740,1648.183350 3588.327637,1648.183350 3565.375488,1648.183350 
	C3563.450928,1633.488770 3563.942383,1605.629883 3566.240723,1598.350342 
	C3575.720459,1598.350342 3585.365967,1598.350342 3597.003418,1598.350220 
M609.012573,1648.301025 
	C600.136230,1648.301025 591.259949,1648.301025 581.694153,1648.301025 
	C581.694153,1639.131958 581.481812,1631.186035 581.753052,1623.256348 
	C582.031433,1615.115479 580.545654,1606.836426 583.026062,1597.895264 
	C603.514343,1597.895264 623.666504,1597.895264 643.826111,1597.895264 
	C643.826111,1589.055298 643.826111,1581.191895 643.826111,1572.056152 
	C622.928223,1572.056152 602.505005,1572.056152 582.302551,1572.056152 
	C582.302551,1556.913086 582.302551,1543.063843 582.302551,1528.289062 
	C604.386353,1528.289062 625.882996,1528.289062 647.596313,1528.289062 
	C647.596313,1519.599609 647.596313,1511.873901 647.596313,1504.287598 
	C614.029846,1504.287598 581.208740,1504.287598 548.457092,1504.287598 
	C546.516785,1521.877563 547.266663,1666.072021 549.237976,1673.024658 
	C583.416504,1673.024658 617.566223,1673.024658 651.589294,1673.024658 
	C651.589294,1664.539062 651.589294,1656.739136 651.589294,1648.301147 
	C637.566467,1648.301147 624.286682,1648.301147 609.012573,1648.301025 
M4384.897949,1529.702637 
	C4390.807129,1529.702637 4396.716309,1529.702637 4403.051270,1529.702637 
	C4403.051270,1520.563599 4403.051270,1512.473389 4403.051270,1504.383545 
	C4359.655273,1504.383545 4316.910645,1504.383545 4274.185547,1504.383545 
	C4274.185547,1512.978149 4274.185547,1520.837891 4274.185547,1529.897461 
	C4290.110352,1529.897461 4305.533691,1529.897461 4321.654785,1529.897461 
	C4321.654785,1547.026611 4321.655273,1562.951538 4321.655273,1578.876465 
	C4321.655273,1594.526123 4321.614258,1610.175903 4321.666016,1625.825439 
	C4321.718262,1641.625366 4321.427734,1657.440552 4321.858398,1673.069458 
	C4333.838379,1673.069458 4344.332031,1673.069458 4355.698242,1673.069458 
	C4355.698242,1648.878052 4355.698242,1625.308716 4355.698242,1601.739380 
	C4355.698242,1577.911987 4355.698242,1554.084595 4355.698242,1529.702515 
	C4365.701660,1529.702515 4374.318848,1529.702515 4384.897949,1529.702637 
M1391.057617,1673.702637 
	C1418.256104,1673.702637 1445.454590,1673.702637 1473.031982,1673.702637 
	C1473.031982,1664.512939 1473.031982,1656.423584 1473.031982,1647.520752 
	C1449.859375,1647.520752 1427.337402,1647.520752 1403.697754,1647.520752 
	C1403.697754,1623.192261 1403.697754,1599.664307 1403.697754,1576.136230 
	C1403.697754,1552.271118 1403.697754,1528.406128 1403.697754,1504.340576 
	C1391.778320,1504.340576 1381.018555,1504.340576 1370.338379,1504.340576 
	C1368.415894,1524.763672 1369.230225,1665.910278 1371.412109,1673.702515 
	C1377.181030,1673.702515 1383.132690,1673.702515 1391.057617,1673.702637 
M1075.654907,1515.141602 
	C1075.654907,1567.645996 1075.654907,1620.150513 1075.654907,1673.052612 
	C1110.738281,1673.052612 1144.796631,1673.052612 1178.913818,1673.052612 
	C1178.913818,1664.308350 1178.913818,1656.227051 1178.913818,1647.348389 
	C1155.619873,1647.348389 1133.097900,1647.348389 1109.482056,1647.348389 
	C1109.482056,1599.120483 1109.482056,1551.711670 1109.482056,1504.093750 
	C1097.826294,1504.093750 1087.294678,1504.093750 1076.119019,1504.093750 
	C1075.951782,1507.364258 1075.803345,1510.267944 1075.654907,1515.141602 
M3235.654785,1619.000000 
	C3235.654785,1636.888062 3235.654785,1654.776123 3235.654785,1673.056396 
	C3270.733154,1673.056396 3304.790039,1673.056396 3338.919922,1673.056396 
	C3338.919922,1664.315063 3338.919922,1656.232666 3338.919922,1647.354980 
	C3315.632080,1647.354980 3293.110596,1647.354980 3269.496094,1647.354980 
	C3269.496094,1599.133789 3269.496094,1551.728271 3269.496094,1504.437866 
	C3257.588135,1504.437866 3246.815430,1504.437866 3235.654785,1504.437866 
	C3235.654785,1542.479492 3235.654785,1579.739746 3235.654785,1619.000000 
M4050.302246,1621.000000 
	C4050.302246,1638.208862 4050.302246,1655.417725 4050.302246,1673.060547 
	C4062.113281,1673.060547 4072.864746,1673.060547 4083.682617,1673.060547 
	C4083.682617,1616.381592 4083.682617,1560.347412 4083.682617,1503.787354 
	C4072.261475,1503.649536 4061.518066,1503.469482 4050.302246,1503.870361 
	C4050.302246,1543.216919 4050.302246,1581.108521 4050.302246,1621.000000 
M868.542358,1501.646606 
	C863.325195,1502.043457 858.108093,1502.440430 853.799805,1502.768188 
	C847.699036,1524.223755 841.850525,1544.792236 835.732117,1566.309692 
	C839.478394,1566.137939 842.757629,1565.547729 845.919189,1565.930054 
	C853.484314,1566.844971 857.484619,1562.914185 860.507812,1556.676880 
	C864.117004,1549.230591 868.507935,1542.151978 871.915833,1534.622559 
	C876.788269,1523.856934 882.122864,1513.199097 884.553345,1500.426270 
	C879.320801,1500.874756 874.832947,1501.259277 868.542358,1501.646606 
z"/>
<path fill="#FF6C01" opacity="1.000000" stroke="none" 
	d="
M621.062683,2.000003 
	C625.558777,3.194622 629.039001,4.765684 632.688110,5.527686 
	C692.428040,18.002310 744.193420,45.909035 789.672546,86.164352 
	C815.117920,108.686958 835.712219,134.972504 851.492432,165.019165 
	C865.703430,192.078018 875.231018,220.810059 877.984192,251.209595 
	C879.896851,272.328339 880.778381,293.786285 879.395569,314.914337 
	C873.980591,397.648499 846.454956,471.825378 790.864136,534.470459 
	C785.564209,540.442993 779.776184,546.013611 773.916504,551.449280 
	C768.337585,556.624573 762.368042,561.378906 755.687683,567.070129 
	C758.468628,568.242493 760.638489,569.356995 762.929810,570.093384 
	C800.114685,582.043518 830.245789,604.600464 856.110596,633.095886 
	C899.200989,680.568726 923.452209,737.033203 933.447632,799.875854 
	C935.422058,812.289368 935.476257,825.013489 936.319824,837.600769 
	C939.271057,881.637634 932.060974,924.299988 917.846558,965.787842 
	C899.127014,1020.424744 867.856750,1066.793091 824.582092,1105.178833 
	C773.533691,1150.459961 713.984009,1179.602905 649.060486,1198.713501 
	C611.047668,1209.902832 572.333008,1217.541382 532.766235,1220.273682 
	C510.916351,1221.782593 488.992462,1223.862915 467.143860,1223.453003 
	C385.668274,1221.924561 306.624969,1207.991577 231.889954,1174.036865 
	C184.387665,1152.455078 141.839218,1123.738281 106.602631,1085.007446 
	C68.664436,1043.306885 41.602459,995.181641 24.324991,941.571167 
	C14.202788,910.162781 7.813433,877.974915 4.516617,843.707886 
	C3.262666,837.565735 2.631335,832.782837 2.000003,828.000000 
	C2.000000,813.958069 2.000000,799.916199 2.506717,784.440491 
	C3.526557,777.968079 4.039679,772.929504 5.016717,767.106445 
	C7.224652,738.040039 12.594674,710.374634 20.324163,683.191284 
	C31.096903,645.305359 45.473080,608.887512 67.389099,575.911865 
	C74.734360,564.859924 82.947525,554.324829 91.406189,544.083923 
	C117.699104,512.251099 132.327011,475.993988 133.684875,434.635223 
	C134.208923,418.673309 133.819458,402.679321 134.451019,386.723877 
	C134.781815,378.366760 132.080856,372.021088 125.999107,366.451935 
	C113.451935,354.962341 102.431564,342.096832 92.692719,328.126282 
	C69.630669,295.043427 55.980076,258.826599 57.846920,218.048340 
	C58.922150,194.561676 61.085472,171.078690 63.879238,147.728073 
	C67.737228,115.482483 72.645233,83.362389 77.116882,51.190407 
	C79.396202,34.791515 81.704697,18.396673 84.000000,2.000000 
	C88.083336,2.000000 92.166664,2.000000 97.246292,2.930710 
	C98.257942,72.470802 98.271240,141.080185 98.295624,209.689560 
	C98.296684,212.684143 98.059044,215.732346 98.521240,218.662735 
	C99.698486,226.126602 106.872337,232.777481 114.105446,233.505310 
	C120.685020,234.167404 128.588669,228.849823 130.799026,221.643311 
	C131.744141,218.561890 131.674301,215.099060 131.677170,211.809189 
	C131.725067,156.854965 131.691208,101.900673 131.724594,46.946426 
	C131.733688,31.964233 131.903793,16.982140 132.000000,2.000000 
	C138.722580,2.000000 145.445145,2.000000 152.948456,2.929064 
	C153.712341,73.439125 153.693512,143.020126 153.687378,212.601120 
	C153.687164,214.928391 153.550125,217.299942 153.929916,219.575226 
	C155.554214,229.306213 166.710938,235.565063 175.926224,232.038284 
	C183.603989,229.099915 186.307343,224.443924 186.311127,213.719803 
	C186.332291,153.793396 186.336899,93.866997 186.306946,33.940609 
	C186.301636,23.293690 186.107132,12.646867 186.000000,2.000000 
	C192.061188,2.000000 198.122375,2.000000 204.947937,2.928010 
	C205.694275,72.487015 205.666992,141.118011 205.686279,209.748993 
	C205.687210,213.066391 205.686630,216.473785 206.390244,219.685120 
	C209.175064,232.395203 223.506958,237.195053 233.539810,228.960785 
	C239.011734,224.469818 239.747452,218.426804 239.738251,211.873520 
	C239.661530,157.235153 239.672943,102.596619 239.708755,47.958168 
	C239.718796,32.638725 239.898254,17.319387 240.000000,2.000000 
	C243.428711,2.000000 246.857437,2.000000 251.273346,2.816759 
	C254.904633,20.669207 257.756683,37.675770 260.147369,54.746941 
	C264.469696,85.611275 268.831482,116.475952 272.588715,147.411896 
	C276.258881,177.631104 280.890900,207.740433 278.525391,238.481720 
	C276.677032,262.502014 270.375031,284.823334 258.680359,305.716003 
	C244.249893,331.496124 224.851364,353.378571 204.185745,374.192413 
	C200.190811,378.216003 198.140335,382.187958 198.175583,388.069946 
	C198.421143,429.045380 198.297913,470.022980 198.327072,510.999847 
	C198.328583,513.126770 198.642532,515.253418 198.939560,519.002930 
	C211.804565,507.081635 223.632889,496.516785 234.871735,485.358215 
	C237.009018,483.236206 237.549164,478.771057 237.577560,475.376526 
	C237.792053,449.726135 237.839966,424.071625 237.578568,398.422089 
	C237.522949,392.963409 239.455338,389.289093 243.031784,385.329193 
	C257.053955,369.803314 271.412018,354.480927 284.211517,337.971375 
	C311.375427,302.933716 320.709991,262.341034 317.480469,218.763855 
	C315.816284,196.308304 312.774536,173.936249 309.793976,151.601379 
	C305.759583,121.369774 301.227844,91.204048 296.828918,61.021793 
	C293.959961,41.337078 290.947937,21.673208 288.000000,2.000000 
	C398.708466,2.000000 509.416901,2.000000 621.062683,2.000003 
M267.668091,881.240479 
	C275.068817,932.110168 298.381042,974.625977 337.110962,1007.960815 
	C385.473541,1049.586670 442.048218,1065.430786 505.132721,1055.950684 
	C554.803223,1048.486328 596.367249,1024.947021 628.923462,987.016418 
	C667.819885,941.698730 684.766418,888.803467 678.305298,829.010254 
	C672.458191,774.899536 648.584778,729.817261 607.415955,694.710449 
	C558.075195,652.635071 500.772400,636.610657 436.530945,647.708435 
	C383.666565,656.840759 341.154877,683.493530 308.254578,725.541992 
	C284.742737,755.591492 271.117004,789.990967 266.664490,827.726562 
	C264.643402,844.855408 264.292633,862.265198 267.668091,881.240479 
M381.255798,436.211670 
	C370.045288,446.617584 358.854462,457.044800 347.620209,467.424988 
	C323.445831,489.761475 298.809601,511.620270 275.180969,534.519226 
	C249.884811,559.034363 229.919983,587.506409 215.745224,619.968567 
	C194.679520,668.211914 184.658051,718.300049 187.447342,771.115845 
	C188.966476,799.881226 193.970596,827.813171 202.332291,855.203735 
	C206.064575,867.429749 210.070084,879.682007 217.260986,890.656128 
	C217.435013,884.090210 216.568695,877.708435 216.380692,871.306824 
	C215.492035,841.047913 217.068085,810.989136 221.959869,781.014954 
	C229.206909,736.609009 244.641113,695.890991 271.396820,659.381775 
	C294.060944,628.455750 319.443237,599.926575 345.566681,572.014648 
	C364.895508,551.362488 384.890747,531.335266 404.478546,510.923523 
	C413.456482,501.567932 422.047363,491.840515 431.042389,482.501862 
	C437.439758,475.860046 444.219391,469.586456 449.512146,464.430695 
	C466.263733,467.661652 481.728363,472.083008 497.447937,473.356140 
	C524.451843,475.543213 550.463806,469.642242 574.616394,457.397827 
	C636.774353,425.886230 677.876709,376.911011 695.098816,308.949402 
	C702.008240,281.683533 704.344421,254.033783 698.137817,226.131332 
	C693.285950,204.319214 681.605164,188.104614 661.177551,178.254822 
	C638.300903,167.224106 614.542725,166.746094 590.171265,171.064407 
	C560.035217,176.404114 531.992249,187.607239 505.388519,202.270157 
	C490.271759,210.601898 475.581970,219.911682 461.565735,229.985703 
	C443.583527,242.910187 431.905792,261.267914 422.765442,281.065674 
	C403.989563,321.733734 394.449036,363.925720 403.709259,408.819733 
	C404.526703,412.782745 404.075500,415.870331 400.865753,418.629547 
	C394.567474,424.043762 388.456970,429.676392 381.255798,436.211670 
z"/>
<path fill="#FFFEFE" opacity="1.000000" stroke="none" 
	d="
M83.062683,2.000000 
	C81.704697,18.396673 79.396202,34.791515 77.116882,51.190407 
	C72.645233,83.362389 67.737228,115.482483 63.879238,147.728073 
	C61.085472,171.078690 58.922150,194.561676 57.846920,218.048340 
	C55.980076,258.826599 69.630669,295.043427 92.692719,328.126282 
	C102.431564,342.096832 113.451935,354.962341 125.999107,366.451935 
	C132.080856,372.021088 134.781815,378.366760 134.451019,386.723877 
	C133.819458,402.679321 134.208923,418.673309 133.684875,434.635223 
	C132.327011,475.993988 117.699104,512.251099 91.406189,544.083923 
	C82.947525,554.324829 74.734360,564.859924 67.389099,575.911865 
	C45.473080,608.887512 31.096903,645.305359 20.324163,683.191284 
	C12.594674,710.374634 7.224652,738.040039 4.591760,767.119507 
	C3.134822,767.935608 2.567194,767.963318 2.000000,768.000000 
	C2.000000,512.666626 2.000000,257.333282 2.000000,2.000000 
	C28.847185,2.000000 55.486275,2.000000 83.062683,2.000000 
z"/>
<path fill="#FFFCFA" opacity="1.000000" stroke="none" 
	d="
M287.064117,2.000000 
	C290.947937,21.673208 293.959961,41.337078 296.828918,61.021793 
	C301.227844,91.204048 305.759583,121.369774 309.793976,151.601379 
	C312.774536,173.936249 315.816284,196.308304 317.480469,218.763855 
	C320.709991,262.341034 311.375427,302.933716 284.211517,337.971375 
	C271.412018,354.480927 257.053955,369.803314 243.031784,385.329193 
	C239.455338,389.289093 237.522949,392.963409 237.578568,398.422089 
	C237.839966,424.071625 237.792053,449.726135 237.577560,475.376526 
	C237.549164,478.771057 237.009018,483.236206 234.871735,485.358215 
	C223.632889,496.516785 211.804565,507.081635 198.939560,519.002930 
	C198.642532,515.253418 198.328583,513.126770 198.327072,510.999847 
	C198.297913,470.022980 198.421143,429.045380 198.175583,388.069946 
	C198.140335,382.187958 200.190811,378.216003 204.185745,374.192413 
	C224.851364,353.378571 244.249893,331.496124 258.680359,305.716003 
	C270.375031,284.823334 276.677032,262.502014 278.525391,238.481720 
	C280.890900,207.740433 276.258881,177.631104 272.588715,147.411896 
	C268.831482,116.475952 264.469696,85.611275 260.147369,54.746941 
	C257.756683,37.675770 254.904633,20.669207 252.130280,2.816759 
	C263.376068,2.000000 274.752167,2.000000 287.064117,2.000000 
z"/>
<path fill="#FFFBF7" opacity="1.000000" stroke="none" 
	d="
M131.064789,2.000000 
	C131.903793,16.982140 131.733688,31.964233 131.724594,46.946426 
	C131.691208,101.900673 131.725067,156.854965 131.677170,211.809189 
	C131.674301,215.099060 131.744141,218.561890 130.799026,221.643311 
	C128.588669,228.849823 120.685020,234.167404 114.105446,233.505310 
	C106.872337,232.777481 99.698486,226.126602 98.521240,218.662735 
	C98.059044,215.732346 98.296684,212.684143 98.295624,209.689560 
	C98.271240,141.080185 98.257942,72.470802 98.121292,2.930710 
	C108.709862,2.000000 119.419716,2.000000 131.064789,2.000000 
z"/>
<path fill="#FFFCFA" opacity="1.000000" stroke="none" 
	d="
M239.064789,2.000000 
	C239.898254,17.319387 239.718796,32.638725 239.708755,47.958168 
	C239.672943,102.596619 239.661530,157.235153 239.738251,211.873520 
	C239.747452,218.426804 239.011734,224.469818 233.539810,228.960785 
	C223.506958,237.195053 209.175064,232.395203 206.390244,219.685120 
	C205.686630,216.473785 205.687210,213.066391 205.686279,209.748993 
	C205.666992,141.118011 205.694275,72.487015 205.856171,2.928010 
	C216.709854,2.000000 227.419724,2.000000 239.064789,2.000000 
z"/>
<path fill="#FFFFFF" opacity="1.000000" stroke="none" 
	d="
M185.066284,2.000000 
	C186.107132,12.646867 186.301636,23.293690 186.306946,33.940609 
	C186.336899,93.866997 186.332291,153.793396 186.311127,213.719803 
	C186.307343,224.443924 183.603989,229.099915 175.926224,232.038284 
	C166.710938,235.565063 155.554214,229.306213 153.929916,219.575226 
	C153.550125,217.299942 153.687164,214.928391 153.687378,212.601120 
	C153.693512,143.020126 153.712341,73.439125 153.864594,2.929064 
	C164.044189,2.000000 174.088364,2.000000 185.066284,2.000000 
z"/>
<path fill="#FFF8F4" opacity="1.000000" stroke="none" 
	d="
M2.000000,768.888306 
	C2.567194,767.963318 3.134822,767.935608 4.127843,767.903870 
	C4.039679,772.929504 3.526557,777.968079 2.506717,783.503357 
	C2.000000,779.258850 2.000000,774.517761 2.000000,768.888306 
z"/>
<path fill="#FFF8F4" opacity="1.000000" stroke="none" 
	d="
M2.000003,828.888306 
	C2.631335,832.782837 3.262666,837.565735 3.862293,843.203491 
	C3.830590,844.058411 2.914206,844.063293 2.457103,844.031616 
	C2.000000,839.258850 2.000000,834.517761 2.000003,828.888306 
z"/>
<path fill="#FF6C01" opacity="1.000000" stroke="none" 
	d="
M2654.861816,580.802246 
	C2684.671875,573.323853 2713.983643,568.067383 2743.865234,565.457153 
	C2775.391602,562.703369 2806.953857,561.273132 2838.494873,562.546143 
	C2876.002930,564.059998 2913.272217,568.287476 2949.340332,579.748840 
	C2997.847900,595.163025 3039.377686,620.754700 3069.850830,662.379333 
	C3089.087891,688.655762 3099.906250,718.491943 3105.944824,750.216980 
	C3109.861816,770.797546 3112.324951,791.514282 3112.383301,812.539062 
	C3112.718750,933.462891 3113.227783,1054.386108 3113.664307,1175.309570 
	C3113.671387,1177.257446 3113.501465,1179.205811 3113.389404,1181.703613 
	C3042.364502,1181.703613 2971.916016,1181.703613 2900.535156,1181.703613 
	C2900.535156,1161.981201 2900.535156,1142.499878 2900.535156,1120.900757 
	C2892.026367,1128.663086 2885.253906,1135.232422 2878.076172,1141.323730 
	C2840.952881,1172.827393 2798.444336,1191.455444 2749.518311,1194.281372 
	C2735.927002,1195.066406 2722.266113,1196.073975 2708.695312,1195.529175 
	C2663.944092,1193.732178 2622.043945,1182.331055 2585.350342,1155.622925 
	C2557.976318,1135.697998 2538.279053,1109.542236 2527.175781,1077.625488 
	C2512.477051,1035.373291 2511.430176,992.121216 2522.928711,949.068359 
	C2535.740234,901.098572 2565.684814,866.412781 2609.510498,843.513855 
	C2638.749756,828.236450 2670.085938,819.775940 2702.657471,815.933594 
	C2718.778076,814.031921 2735.049316,812.633850 2751.266846,812.475525 
	C2799.416504,812.005432 2846.529053,819.361694 2892.656250,833.114136 
	C2895.158936,833.860352 2897.657471,834.621399 2901.311035,835.723206 
	C2902.459229,820.985046 2900.680176,807.364136 2896.789795,794.071594 
	C2887.550293,762.502197 2865.617188,743.783386 2834.812256,734.846924 
	C2814.571045,728.975098 2793.761475,728.041931 2772.697510,728.074829 
	C2718.681641,728.159180 2667.467529,741.046570 2617.399414,759.937439 
	C2615.910645,760.499146 2614.333740,760.826782 2611.607178,761.602173 
	C2596.935303,711.267578 2582.374023,661.312500 2567.429932,610.044312 
	C2595.692383,597.925171 2624.593994,588.662598 2654.861816,580.802246 
M2727.369629,1019.170959 
	C2734.494141,1039.081421 2749.778809,1050.382202 2768.996094,1056.085083 
	C2797.150879,1064.439941 2824.877930,1061.686890 2851.402588,1049.010132 
	C2872.719482,1038.822144 2887.754883,1022.555847 2896.565674,1000.605957 
	C2905.371582,978.669189 2903.803467,955.793152 2903.400146,931.840454 
	C2889.151855,928.150818 2875.515625,923.807983 2861.557129,921.178223 
	C2834.567383,916.093445 2807.390625,915.292908 2780.530273,922.256165 
	C2758.273438,928.026001 2740.585938,940.249634 2730.176270,961.299866 
	C2721.173340,979.504883 2721.833984,998.534668 2727.369629,1019.170959 
z"/>
<path fill="#FF6B01" opacity="1.000000" stroke="none" 
	d="
M1869.810303,733.942017 
	C1883.321411,704.659119 1900.141357,678.366455 1921.528198,655.235229 
	C1961.119629,612.414307 2009.036987,583.123230 2065.498779,568.001831 
	C2101.200195,558.440430 2137.605469,556.045593 2174.247314,558.475098 
	C2215.986572,561.242554 2256.326904,570.034424 2294.043701,589.192993 
	C2344.815430,614.982788 2383.938721,652.644958 2411.476562,702.421387 
	C2431.498779,738.612366 2443.094971,777.587830 2450.165039,818.145752 
	C2456.603760,855.082764 2455.762939,892.321411 2455.621094,929.548584 
	C2455.614014,931.449341 2454.932373,933.347473 2454.395996,936.118042 
	C2318.967529,936.118042 2183.798340,936.118042 2047.997314,936.118042 
	C2048.513672,947.667664 2053.228760,956.891174 2057.425049,966.104004 
	C2073.963379,1002.411987 2102.732910,1023.754272 2141.228027,1031.791260 
	C2194.053955,1042.820312 2242.209717,1031.970947 2284.839600,998.499573 
	C2294.496826,990.917236 2303.572021,982.594360 2313.834473,973.827148 
	C2352.943359,1006.214539 2392.473145,1038.950317 2432.825928,1072.367676 
	C2426.559814,1079.795288 2420.949219,1087.105835 2414.666260,1093.784180 
	C2379.471191,1131.194702 2338.370850,1159.983887 2289.955078,1177.713013 
	C2267.419922,1185.965088 2244.041260,1190.849731 2220.219482,1193.834351 
	C2190.360352,1197.575073 2160.319092,1197.861816 2130.531494,1195.387451 
	C2060.144287,1189.540771 1996.408691,1165.663330 1942.272949,1119.417236 
	C1890.518433,1075.205688 1860.016479,1018.383789 1846.253662,952.161682 
	C1838.954346,917.039795 1837.902710,881.451294 1840.585083,845.915161 
	C1843.504639,807.235229 1852.996216,769.938538 1869.810303,733.942017 
M2217.221191,743.768188 
	C2197.373535,723.239929 2172.244385,715.665710 2144.759521,716.594299 
	C2116.967041,717.533264 2093.352783,728.697998 2075.626953,750.910645 
	C2058.181396,772.772461 2048.767334,797.980469 2043.694946,825.730957 
	C2114.072021,825.730957 2183.857422,825.730957 2254.183838,825.730957 
	C2249.857666,794.814087 2240.858643,766.786926 2217.221191,743.768188 
z"/>
<path fill="#FF6B01" opacity="1.000000" stroke="none" 
	d="
M3954.250244,618.213379 
	C3996.140869,586.855408 4042.326660,567.273560 4093.504883,560.841248 
	C4149.949219,553.747070 4205.780762,557.325134 4259.399414,577.687744 
	C4338.786621,607.836182 4391.834473,664.516785 4422.126465,743.165833 
	C4433.764160,773.381897 4440.441406,804.783569 4444.536621,836.911499 
	C4448.340820,866.759277 4447.476562,896.647705 4447.611328,926.553223 
	C4447.624512,929.468872 4446.748047,932.388611 4446.146973,936.170654 
	C4310.674316,936.170654 4175.522949,936.170654 4039.691650,936.170654 
	C4040.865967,946.874207 4044.547607,955.743408 4048.462891,964.458618 
	C4066.499756,1004.608337 4098.516602,1026.518188 4141.057129,1033.453491 
	C4178.829102,1039.611572 4215.214844,1034.679565 4249.360840,1016.485413 
	C4267.416504,1006.865112 4283.195312,994.182068 4298.090332,980.332764 
	C4300.257812,978.317139 4301.705566,975.527222 4303.991699,972.405090 
	C4345.010254,1006.383301 4384.548340,1039.135376 4424.393066,1072.141357 
	C4413.544434,1087.188354 4401.251465,1100.216187 4388.072266,1112.303955 
	C4364.666016,1133.771484 4338.722168,1151.688110 4310.166992,1165.742554 
	C4283.096680,1179.066284 4254.451660,1187.046021 4224.770996,1192.022949 
	C4190.719238,1197.732910 4156.382812,1198.087402 4122.289062,1195.350952 
	C4054.411133,1189.902954 3992.700439,1167.102661 3939.412109,1123.836914 
	C3891.919922,1085.277222 3861.241699,1035.583496 3844.251221,977.184387 
	C3835.284668,946.364746 3831.887451,914.818909 3831.498779,882.717163 
	C3831.002686,841.751282 3836.373047,801.836914 3849.857422,763.164795 
	C3870.204834,704.810120 3904.233398,656.162048 3954.250244,618.213379 
M4199.633789,735.251465 
	C4185.085449,724.496582 4168.809570,719.117615 4150.738281,717.344727 
	C4125.369629,714.855896 4102.590820,720.422363 4082.576416,736.098633 
	C4063.658447,750.915833 4052.176270,771.004028 4044.156738,793.222778 
	C4040.384521,803.674500 4036.894775,814.269592 4036.129395,825.746948 
	C4106.283691,825.746948 4175.740234,825.746948 4245.962402,825.746948 
	C4241.420898,789.987366 4229.354980,758.947327 4199.633789,735.251465 
z"/>
<path fill="#FF6B01" opacity="1.000000" stroke="none" 
	d="
M3254.000000,741.682007 
	C3239.345703,741.681946 3225.691162,741.681946 3212.177246,741.681946 
	C3209.889404,734.429138 3209.089355,590.349426 3211.184814,572.350281 
	C3395.852051,572.350281 3580.598877,572.350281 3766.325684,572.350281 
	C3766.325684,575.560059 3766.325928,578.469482 3766.325928,581.378845 
	C3766.325928,622.710999 3766.200195,664.043884 3766.462402,705.374390 
	C3766.501221,711.498291 3764.929443,716.055725 3760.676270,720.444397 
	C3747.245850,734.301147 3734.157471,748.489319 3720.924072,762.537354 
	C3693.318848,791.842285 3665.742920,821.175110 3638.082520,850.428040 
	C3618.873779,870.743103 3599.478027,890.881165 3580.285645,911.211548 
	C3554.021484,939.033447 3527.890381,966.980896 3501.654785,994.829773 
	C3496.697266,1000.092651 3491.516846,1005.145630 3484.744141,1012.014771 
	C3579.714355,1012.014771 3672.396729,1012.014771 3765.698730,1012.014771 
	C3765.698730,1069.024536 3765.698730,1124.877075 3765.698730,1180.801514 
	C3759.053955,1182.717041 3219.118652,1183.578003 3200.958496,1181.556641 
	C3200.754150,1179.130981 3200.353027,1176.572510 3200.350586,1174.013916 
	C3200.311768,1131.681885 3200.424561,1089.349243 3200.205566,1047.018311 
	C3200.175537,1041.192261 3202.170654,1037.280640 3206.127686,1033.117676 
	C3237.072510,1000.562866 3267.696533,967.703613 3298.494141,935.008667 
	C3316.750488,915.627380 3335.218018,896.444824 3353.453857,877.044678 
	C3377.605469,851.351624 3401.585205,825.497314 3425.711670,799.780762 
	C3442.561279,781.820862 3459.535400,763.977783 3476.445557,746.074341 
	C3477.284912,745.185791 3478.045898,744.222839 3480.228027,741.682068 
	C3403.922607,741.682068 3329.461426,741.682068 3254.000000,741.682007 
z"/>
<path fill="#FF6B01" opacity="1.000000" stroke="none" 
	d="
M1743.572754,1001.698242 
	C1752.938232,998.190613 1761.530518,994.877686 1771.016357,991.220154 
	C1771.016357,1047.664185 1771.016357,1103.129028 1771.016357,1159.859619 
	C1767.862061,1161.540283 1763.949829,1163.935059 1759.796143,1165.788696 
	C1728.333130,1179.829712 1695.741455,1189.453735 1661.207520,1192.525146 
	C1622.199707,1195.994629 1583.518677,1195.497314 1545.346802,1185.905151 
	C1515.547485,1178.416870 1488.417480,1165.679321 1465.687378,1144.445679 
	C1449.025879,1128.881226 1437.724731,1110.011230 1430.051514,1088.717896 
	C1419.902832,1060.555298 1415.853149,1031.342773 1415.761108,1001.623596 
	C1415.508179,919.960205 1415.673828,838.295593 1415.673828,756.631470 
	C1415.673828,753.008484 1415.673828,749.385498 1415.673828,744.584106 
	C1391.578003,744.584106 1368.132446,744.584106 1344.195068,744.584106 
	C1344.195068,686.565186 1344.195068,629.738953 1344.195068,572.070435 
	C1367.583862,572.070435 1390.781738,572.070435 1413.128784,572.070435 
	C1414.205078,570.993835 1414.451904,570.767944 1414.673218,570.519470 
	C1414.888428,570.277832 1415.203125,570.036682 1415.256104,569.754456 
	C1415.439331,568.777100 1415.634766,567.782288 1415.637207,566.793640 
	C1415.755615,517.470947 1415.853882,468.148163 1415.965576,418.825439 
	C1415.966309,418.502716 1416.123413,418.180328 1416.207397,417.857758 
	C1423.048096,415.953369 1617.531128,415.382538 1631.550781,417.387085 
	C1631.550781,468.343109 1631.550781,519.475037 1631.550781,571.424011 
	C1679.191650,571.424011 1725.739136,571.424011 1772.978760,571.424011 
	C1772.978760,629.068237 1772.978760,685.888000 1772.978760,744.197815 
	C1761.684937,744.482544 1750.172119,744.284363 1738.672974,744.318298 
	C1726.673462,744.353699 1714.673706,744.326294 1702.674072,744.326294 
	C1691.007812,744.326294 1679.341431,744.326294 1667.675171,744.326294 
	C1656.079346,744.326294 1644.483521,744.326233 1632.293213,744.326233 
	C1632.052368,748.041443 1631.702759,750.932312 1631.701416,753.823303 
	C1631.670288,818.487976 1631.610718,883.152771 1631.767212,947.817017 
	C1631.785645,955.414490 1632.480103,963.107483 1633.813232,970.586487 
	C1638.068359,994.457214 1651.504883,1007.216797 1678.278809,1010.172119 
	C1700.331299,1012.606201 1721.851318,1009.019409 1743.572754,1001.698242 
z"/>
<path fill="#FF6C01" opacity="1.000000" stroke="none" 
	d="
M1261.679810,638.000000 
	C1261.679810,819.531433 1261.679810,1000.062866 1261.679810,1180.442017 
	C1254.412231,1182.741577 1056.756836,1183.296753 1044.801758,1181.112427 
	C1044.801758,978.472168 1044.801758,775.743958 1044.801758,572.343628 
	C1116.872559,572.343628 1188.637695,572.343628 1261.679810,572.343628 
	C1261.679810,593.922241 1261.679810,615.461121 1261.679810,638.000000 
z"/>
<path fill="#FF6D03" opacity="1.000000" stroke="none" 
	d="
M1245.906982,517.692688 
	C1177.077148,517.692627 1109.230347,517.692627 1040.858032,517.692627 
	C1040.858032,464.202057 1040.858032,411.783142 1040.858032,358.848724 
	C1115.810059,358.848724 1190.216064,358.848724 1265.136230,358.848724 
	C1265.136230,411.809448 1265.136230,464.228363 1265.136230,517.692749 
	C1258.710205,517.692749 1252.800171,517.692749 1245.906982,517.692688 
z"/>
<path fill="#FF6E05" opacity="1.000000" stroke="none" 
	d="
M318.613220,1526.502686 
	C320.515747,1518.614502 322.151245,1511.516846 323.859741,1504.102539 
	C335.219696,1504.102539 346.102509,1504.102539 358.279846,1504.102539 
	C342.955109,1560.843140 327.781342,1617.024536 312.576874,1673.319824 
	C300.365906,1673.319824 289.123047,1673.319824 276.604034,1673.319824 
	C266.986603,1632.966553 256.546692,1592.624878 249.230408,1550.024414 
	C238.567978,1591.833496 228.246216,1632.306641 217.831375,1673.144897 
	C205.658890,1673.144897 194.116180,1673.144897 181.333221,1673.144897 
	C167.427658,1617.208862 153.454773,1561.002197 139.305374,1504.085327 
	C151.829529,1504.085327 163.060471,1504.085327 175.679062,1504.085327 
	C184.357025,1546.287109 193.058838,1588.604736 202.125244,1632.695557 
	C212.727036,1588.624878 222.887726,1546.387817 233.055313,1504.122192 
	C245.070969,1504.122192 255.946152,1504.122192 267.831360,1504.122192 
	C277.082062,1546.443604 286.281250,1588.529419 295.547546,1630.922119 
	C303.138489,1596.418335 310.742340,1561.855713 318.613220,1526.502686 
z"/>
<path fill="#FF6F07" opacity="1.000000" stroke="none" 
	d="
M2660.291504,1549.999878 
	C2660.291748,1534.393677 2660.291748,1519.787354 2660.291748,1504.643188 
	C2670.651367,1502.643311 2680.499268,1504.091553 2691.006592,1503.588867 
	C2691.006592,1560.295044 2691.006592,1616.363159 2691.006592,1673.073730 
	C2679.993896,1673.073730 2669.139648,1673.073730 2656.368408,1673.073730 
	C2632.986328,1632.684082 2608.968994,1591.196777 2585.032227,1549.848389 
	C2585.032227,1590.604126 2585.032227,1631.572632 2585.032227,1673.125610 
	C2574.952637,1673.125610 2565.174805,1673.125610 2554.842285,1673.125610 
	C2554.842285,1616.861938 2554.842285,1561.062256 2554.842285,1503.871338 
	C2566.948486,1503.346436 2579.100830,1503.812622 2592.411133,1503.608643 
	C2615.412354,1543.164795 2638.533447,1582.927246 2661.997314,1623.279419 
	C2661.424316,1598.993896 2660.857910,1574.996826 2660.291504,1549.999878 
z"/>
<path fill="#FF6D04" opacity="1.000000" stroke="none" 
	d="
M3038.300781,1557.958740 
	C3044.107910,1581.706177 3042.777588,1604.292969 3033.971436,1626.140869 
	C3023.312744,1652.584229 3002.067871,1666.073486 2975.187500,1671.695801 
	C2954.278564,1676.069214 2933.151611,1677.260742 2911.865723,1674.443848 
	C2906.987061,1673.798218 2902.010010,1673.892700 2896.384277,1673.611816 
	C2896.384277,1617.646606 2896.384277,1562.249878 2896.384277,1505.546509 
	C2904.120361,1504.500366 2912.137695,1502.750977 2920.207764,1502.459839 
	C2938.435059,1501.802490 2956.691650,1500.885986 2974.852539,1504.141113 
	C3000.002197,1508.648682 3020.727295,1519.560425 3032.806885,1543.227661 
	C3035.054199,1547.631226 3036.407471,1552.490967 3038.300781,1557.958740 
M2935.246826,1650.298950 
	C2941.230957,1650.294800 2947.247070,1650.691650 2953.193115,1650.214233 
	C2974.263428,1648.521729 2990.729492,1639.350220 2999.424561,1619.352783 
	C3006.198730,1603.772827 3007.178955,1587.362183 3004.478271,1570.621094 
	C3003.073730,1561.915161 2999.709717,1554.151367 2995.063721,1546.752808 
	C2984.980469,1530.696167 2952.997559,1520.971924 2930.013184,1529.106079 
	C2929.916992,1530.265869 2929.716064,1531.562988 2929.715332,1532.860229 
	C2929.694824,1569.429688 2929.689941,1605.999268 2929.703369,1642.568726 
	C2929.704102,1644.557983 2929.564697,1646.644409 2930.126221,1648.492432 
	C2930.379639,1649.326050 2932.197021,1649.684448 2935.246826,1650.298950 
z"/>
<path fill="#FF6D04" opacity="1.000000" stroke="none" 
	d="
M1919.664062,1669.206055 
	C1918.334229,1671.303467 1917.059570,1673.453369 1915.720581,1673.494385 
	C1906.133423,1673.787109 1896.533203,1673.650757 1886.307617,1673.650757 
	C1886.307617,1616.809326 1886.307617,1560.744751 1886.307617,1504.167480 
	C1897.147583,1504.167480 1907.684692,1504.167480 1919.404419,1504.167480 
	C1919.404419,1526.289551 1919.404419,1548.408447 1919.404419,1571.078369 
	C1942.405884,1571.078369 1964.241089,1571.078369 1987.301025,1571.078369 
	C1987.301025,1548.944702 1987.301025,1526.849487 1987.301025,1504.255371 
	C1999.276733,1504.255371 2010.030640,1504.255371 2021.238770,1504.255371 
	C2021.238770,1560.677490 2021.238770,1616.501587 2021.238770,1673.013428 
	C2010.175049,1673.013428 1999.422607,1673.013428 1987.799561,1673.013428 
	C1987.799561,1648.808960 1987.799561,1624.960815 1987.799561,1600.415039 
	C1964.877563,1600.415039 1942.808838,1600.415039 1919.689453,1600.415039 
	C1919.689453,1623.178101 1919.689453,1645.730103 1919.664062,1669.206055 
z"/>
<path fill="#FF6E05" opacity="1.000000" stroke="none" 
	d="
M2213.947266,1667.684082 
	C2231.598389,1612.885864 2249.050781,1558.846436 2266.677979,1504.265625 
	C2280.559570,1504.265625 2294.420410,1504.265625 2309.570557,1504.265625 
	C2327.415771,1559.927612 2345.413330,1616.064697 2363.694092,1673.085083 
	C2351.500244,1673.085083 2340.392822,1673.085083 2327.954102,1673.085083 
	C2323.271729,1658.735107 2318.365234,1643.699097 2313.313477,1628.217407 
	C2296.061523,1628.217407 2278.852783,1628.217407 2260.869141,1628.217407 
	C2256.337891,1642.945068 2251.776123,1657.772583 2247.050293,1673.132690 
	C2235.916992,1673.132690 2224.724121,1673.132690 2212.916016,1673.132690 
	C2213.212402,1671.462524 2213.480225,1669.952759 2213.947266,1667.684082 
M2272.325684,1583.470825 
	C2270.570068,1589.794067 2268.814453,1596.117310 2266.744141,1603.573975 
	C2281.009277,1603.791260 2293.986816,1603.745605 2307.636230,1603.643555 
	C2300.505859,1579.207520 2293.828369,1556.323975 2286.974854,1532.837402 
	C2282.152588,1549.576782 2277.492188,1565.754883 2272.325684,1583.470825 
z"/>
<path fill="#FF6E06" opacity="1.000000" stroke="none" 
	d="
M3596.007568,1598.350342 
	C3585.365967,1598.350342 3575.720459,1598.350342 3566.240723,1598.350342 
	C3563.942383,1605.629883 3563.450928,1633.488770 3565.375488,1648.183350 
	C3588.327637,1648.183350 3611.458740,1648.183350 3635.134277,1648.183350 
	C3635.134277,1657.088257 3635.134277,1664.871948 3635.134277,1673.182373 
	C3600.394043,1673.182373 3566.179199,1673.182373 3531.951172,1673.182373 
	C3529.872314,1666.306885 3529.134766,1521.348267 3531.186035,1504.316772 
	C3564.231445,1504.316772 3597.357178,1504.316772 3631.093262,1504.316772 
	C3631.093262,1511.947754 3631.093262,1519.434082 3631.093262,1528.102783 
	C3609.219482,1528.102783 3587.434814,1528.102783 3565.010986,1528.102783 
	C3565.010986,1543.076050 3565.010986,1556.897827 3565.010986,1572.227173 
	C3585.363281,1572.381836 3605.830322,1572.223267 3626.982910,1572.324951 
	C3626.982910,1581.085327 3626.982910,1589.171265 3626.982910,1598.350220 
	C3616.811523,1598.350220 3606.907471,1598.350220 3596.007568,1598.350342 
z"/>
<path fill="#FF6D04" opacity="1.000000" stroke="none" 
	d="
M610.009766,1648.301025 
	C624.286682,1648.301147 637.566467,1648.301147 651.589294,1648.301147 
	C651.589294,1656.739136 651.589294,1664.539062 651.589294,1673.024658 
	C617.566223,1673.024658 583.416504,1673.024658 549.237976,1673.024658 
	C547.266663,1666.072021 546.516785,1521.877563 548.457092,1504.287598 
	C581.208740,1504.287598 614.029846,1504.287598 647.596313,1504.287598 
	C647.596313,1511.873901 647.596313,1519.599609 647.596313,1528.289062 
	C625.882996,1528.289062 604.386353,1528.289062 582.302551,1528.289062 
	C582.302551,1543.063843 582.302551,1556.913086 582.302551,1572.056152 
	C602.505005,1572.056152 622.928223,1572.056152 643.826111,1572.056152 
	C643.826111,1581.191895 643.826111,1589.055298 643.826111,1597.895264 
	C623.666504,1597.895264 603.514343,1597.895264 583.026062,1597.895264 
	C580.545654,1606.836426 582.031433,1615.115479 581.753052,1623.256348 
	C581.481812,1631.186035 581.694153,1639.131958 581.694153,1648.301025 
	C591.259949,1648.301025 600.136230,1648.301025 610.009766,1648.301025 
z"/>
<path fill="#FF6E05" opacity="1.000000" stroke="none" 
	d="
M4383.916992,1529.702637 
	C4374.318848,1529.702515 4365.701660,1529.702515 4355.698242,1529.702515 
	C4355.698242,1554.084595 4355.698242,1577.911987 4355.698242,1601.739380 
	C4355.698242,1625.308716 4355.698242,1648.878052 4355.698242,1673.069458 
	C4344.332031,1673.069458 4333.838379,1673.069458 4321.858398,1673.069458 
	C4321.427734,1657.440552 4321.718262,1641.625366 4321.666016,1625.825439 
	C4321.614258,1610.175903 4321.655273,1594.526123 4321.655273,1578.876465 
	C4321.655273,1562.951538 4321.654785,1547.026611 4321.654785,1529.897461 
	C4305.533691,1529.897461 4290.110352,1529.897461 4274.185547,1529.897461 
	C4274.185547,1520.837891 4274.185547,1512.978149 4274.185547,1504.383545 
	C4316.910645,1504.383545 4359.655273,1504.383545 4403.051270,1504.383545 
	C4403.051270,1512.473389 4403.051270,1520.563599 4403.051270,1529.702637 
	C4396.716309,1529.702637 4390.807129,1529.702637 4383.916992,1529.702637 
z"/>
<path fill="#FF6E05" opacity="1.000000" stroke="none" 
	d="
M1390.070923,1673.702637 
	C1383.132690,1673.702515 1377.181030,1673.702515 1371.412109,1673.702515 
	C1369.230225,1665.910278 1368.415894,1524.763672 1370.338379,1504.340576 
	C1381.018555,1504.340576 1391.778320,1504.340576 1403.697754,1504.340576 
	C1403.697754,1528.406128 1403.697754,1552.271118 1403.697754,1576.136230 
	C1403.697754,1599.664307 1403.697754,1623.192261 1403.697754,1647.520752 
	C1427.337402,1647.520752 1449.859375,1647.520752 1473.031982,1647.520752 
	C1473.031982,1656.423584 1473.031982,1664.512939 1473.031982,1673.702637 
	C1445.454590,1673.702637 1418.256104,1673.702637 1390.070923,1673.702637 
z"/>
<path fill="#FF6E05" opacity="1.000000" stroke="none" 
	d="
M1075.654907,1514.156616 
	C1075.803345,1510.267944 1075.951782,1507.364258 1076.119019,1504.093750 
	C1087.294678,1504.093750 1097.826294,1504.093750 1109.482056,1504.093750 
	C1109.482056,1551.711670 1109.482056,1599.120483 1109.482056,1647.348389 
	C1133.097900,1647.348389 1155.619873,1647.348389 1178.913818,1647.348389 
	C1178.913818,1656.227051 1178.913818,1664.308350 1178.913818,1673.052612 
	C1144.796631,1673.052612 1110.738281,1673.052612 1075.654907,1673.052612 
	C1075.654907,1620.150513 1075.654907,1567.645996 1075.654907,1514.156616 
z"/>
<path fill="#FF6E05" opacity="1.000000" stroke="none" 
	d="
M3235.654785,1618.000000 
	C3235.654785,1579.739746 3235.654785,1542.479492 3235.654785,1504.437866 
	C3246.815430,1504.437866 3257.588135,1504.437866 3269.496094,1504.437866 
	C3269.496094,1551.728271 3269.496094,1599.133789 3269.496094,1647.354980 
	C3293.110596,1647.354980 3315.632080,1647.354980 3338.919922,1647.354980 
	C3338.919922,1656.232666 3338.919922,1664.315063 3338.919922,1673.056396 
	C3304.790039,1673.056396 3270.733154,1673.056396 3235.654785,1673.056396 
	C3235.654785,1654.776123 3235.654785,1636.888062 3235.654785,1618.000000 
z"/>
<path fill="#FF6E05" opacity="1.000000" stroke="none" 
	d="
M4050.302246,1620.000000 
	C4050.302246,1581.108521 4050.302246,1543.216919 4050.302246,1503.870361 
	C4061.518066,1503.469482 4072.261475,1503.649536 4083.682617,1503.787354 
	C4083.682617,1560.347412 4083.682617,1616.381592 4083.682617,1673.060547 
	C4072.864746,1673.060547 4062.113281,1673.060547 4050.302246,1673.060547 
	C4050.302246,1655.417725 4050.302246,1638.208862 4050.302246,1620.000000 
z"/>
<path fill="#FF6F07" opacity="1.000000" stroke="none" 
	d="
M869.443726,1501.645264 
	C874.832947,1501.259277 879.320801,1500.874756 884.553345,1500.426270 
	C882.122864,1513.199097 876.788269,1523.856934 871.915833,1534.622559 
	C868.507935,1542.151978 864.117004,1549.230591 860.507812,1556.676880 
	C857.484619,1562.914185 853.484314,1566.844971 845.919189,1565.930054 
	C842.757629,1565.547729 839.478394,1566.137939 835.732117,1566.309692 
	C841.850525,1544.792236 847.699036,1524.223755 853.799805,1502.768188 
	C858.108093,1502.440430 863.325195,1502.043457 869.443726,1501.645264 
z"/>
<path fill="#FFFFFE" opacity="1.000000" stroke="none" 
	d="
M267.615448,880.347107 
	C264.292633,862.265198 264.643402,844.855408 266.664490,827.726562 
	C271.117004,789.990967 284.742737,755.591492 308.254578,725.541992 
	C341.154877,683.493530 383.666565,656.840759 436.530945,647.708435 
	C500.772400,636.610657 558.075195,652.635071 607.415955,694.710449 
	C648.584778,729.817261 672.458191,774.899536 678.305298,829.010254 
	C684.766418,888.803467 667.819885,941.698730 628.923462,987.016418 
	C596.367249,1024.947021 554.803223,1048.486328 505.132721,1055.950684 
	C442.048218,1065.430786 385.473541,1049.586670 337.110962,1007.960815 
	C298.381042,974.625977 275.068817,932.110168 267.615448,880.347107 
z"/>
<path fill="#FFFEFE" opacity="1.000000" stroke="none" 
	d="
M381.762299,435.715149 
	C388.456970,429.676392 394.567474,424.043762 400.865753,418.629547 
	C404.075500,415.870331 404.526703,412.782745 403.709259,408.819733 
	C394.449036,363.925720 403.989563,321.733734 422.765442,281.065674 
	C431.905792,261.267914 443.583527,242.910187 461.565735,229.985703 
	C475.581970,219.911682 490.271759,210.601898 505.388519,202.270157 
	C531.992249,187.607239 560.035217,176.404114 590.171265,171.064407 
	C614.542725,166.746094 638.300903,167.224106 661.177551,178.254822 
	C681.605164,188.104614 693.285950,204.319214 698.137817,226.131332 
	C704.344421,254.033783 702.008240,281.683533 695.098816,308.949402 
	C677.876709,376.911011 636.774353,425.886230 574.616394,457.397827 
	C550.463806,469.642242 524.451843,475.543213 497.447937,473.356140 
	C481.728363,472.083008 466.263733,467.661652 449.512146,464.430695 
	C444.219391,469.586456 437.439758,475.860046 431.042389,482.501862 
	C422.047363,491.840515 413.456482,501.567932 404.478546,510.923523 
	C384.890747,531.335266 364.895508,551.362488 345.566681,572.014648 
	C319.443237,599.926575 294.060944,628.455750 271.396820,659.381775 
	C244.641113,695.890991 229.206909,736.609009 221.959869,781.014954 
	C217.068085,810.989136 215.492035,841.047913 216.380692,871.306824 
	C216.568695,877.708435 217.435013,884.090210 217.260986,890.656128 
	C210.070084,879.682007 206.064575,867.429749 202.332291,855.203735 
	C193.970596,827.813171 188.966476,799.881226 187.447342,771.115845 
	C184.658051,718.300049 194.679520,668.211914 215.745224,619.968567 
	C229.919983,587.506409 249.884811,559.034363 275.180969,534.519226 
	C298.809601,511.620270 323.445831,489.761475 347.620209,467.424988 
	C358.854462,457.044800 370.045288,446.617584 381.762299,435.715149 
z"/>
<path fill="#FFFEFD" opacity="1.000000" stroke="none" 
	d="
M2727.029297,1018.442139 
	C2721.833984,998.534668 2721.173340,979.504883 2730.176270,961.299866 
	C2740.585938,940.249634 2758.273438,928.026001 2780.530273,922.256165 
	C2807.390625,915.292908 2834.567383,916.093445 2861.557129,921.178223 
	C2875.515625,923.807983 2889.151855,928.150818 2903.400146,931.840454 
	C2903.803467,955.793152 2905.371582,978.669189 2896.565674,1000.605957 
	C2887.754883,1022.555847 2872.719482,1038.822144 2851.402588,1049.010132 
	C2824.877930,1061.686890 2797.150879,1064.439941 2768.996094,1056.085083 
	C2749.778809,1050.382202 2734.494141,1039.081421 2727.029297,1018.442139 
z"/>
<path fill="#FFFEFE" opacity="1.000000" stroke="none" 
	d="
M2217.722412,744.268555 
	C2240.858643,766.786926 2249.857666,794.814087 2254.183838,825.730957 
	C2183.857422,825.730957 2114.072021,825.730957 2043.694946,825.730957 
	C2048.767334,797.980469 2058.181396,772.772461 2075.626953,750.910645 
	C2093.352783,728.697998 2116.967041,717.533264 2144.759521,716.594299 
	C2172.244385,715.665710 2197.373535,723.239929 2217.722412,744.268555 
z"/>
<path fill="#FFFEFE" opacity="1.000000" stroke="none" 
	d="
M4200.178711,735.718628 
	C4229.354980,758.947327 4241.420898,789.987366 4245.962402,825.746948 
	C4175.740234,825.746948 4106.283691,825.746948 4036.129395,825.746948 
	C4036.894775,814.269592 4040.384521,803.674500 4044.156738,793.222778 
	C4052.176270,771.004028 4063.658447,750.915833 4082.576416,736.098633 
	C4102.590820,720.422363 4125.369629,714.855896 4150.738281,717.344727 
	C4168.809570,719.117615 4185.085449,724.496582 4200.178711,735.718628 
z"/>
<path fill="#FFFEFD" opacity="1.000000" stroke="none" 
	d="
M2934.275879,1650.278809 
	C2932.197021,1649.684448 2930.379639,1649.326050 2930.126221,1648.492432 
	C2929.564697,1646.644409 2929.704102,1644.557983 2929.703369,1642.568726 
	C2929.689941,1605.999268 2929.694824,1569.429688 2929.715332,1532.860229 
	C2929.716064,1531.562988 2929.916992,1530.265869 2930.013184,1529.106079 
	C2952.997559,1520.971924 2984.980469,1530.696167 2995.063721,1546.752808 
	C2999.709717,1554.151367 3003.073730,1561.915161 3004.478271,1570.621094 
	C3007.178955,1587.362183 3006.198730,1603.772827 2999.424561,1619.352783 
	C2990.729492,1639.350220 2974.263428,1648.521729 2953.193115,1650.214233 
	C2947.247070,1650.691650 2941.230957,1650.294800 2934.275879,1650.278809 
z"/>
<path fill="#FFF8F4" opacity="1.000000" stroke="none" 
	d="
M2272.578613,1582.701904 
	C2277.492188,1565.754883 2282.152588,1549.576782 2286.974854,1532.837402 
	C2293.828369,1556.323975 2300.505859,1579.207520 2307.636230,1603.643555 
	C2293.986816,1603.745605 2281.009277,1603.791260 2266.744141,1603.573975 
	C2268.814453,1596.117310 2270.570068,1589.794067 2272.578613,1582.701904 
z"/>
</svg>